# xmcd CD database file
#
# Track frame offsets:
#	150
#	36205
#	61952
#	86800
#	117202
#	144215
#	172085
#	190337
#	215132
#	235340
#
# Disc length: 3552 seconds
#
# Revision: 0
# Processed by: cddbd v1.5.1PL0 Copyright (c) Steve Scherf et al.
# Submitted via: CDex 1.51
#
DISCID=920dde0a
DTITLE=hotep idris galeta - malay tone poem
DYEAR=2002
DGENRE=Jazz
TTITLE0=malay tone poem
TTITLE1=monk in soweto
TTITLE2=bolero for nefertari
TTITLE3=harold's bossa
TTITLE4=knot the blues
TTITLE5=rendezvous in congo square
TTITLE6=shawn's uhdai samba
TTITLE7=blues for mongezi
TTITLE8=jazz hip-hop afrkan rebop
TTITLE9=capetown after midnight
EXTD=YEAR: 2002
EXTT0=
EXTT1=
EXTT2=
EXTT3=
EXTT4=
EXTT5=
EXTT6=
EXTT7=
EXTT8=
EXTT9=
PLAYORDER=
